<?xml version="1.0" encoding="UTF-8"?>
<svg enable-background="new 0 0 47.5 47.5" version="1.1" viewBox="0 0 47.5 47.5" xml:space="preserve" xmlns="http://www.w3.org/2000/svg"><defs><clipPath id="a"><path d="m0 38h38v-38h-38v38z"/></clipPath></defs><g transform="matrix(1.25,0,0,-1.25,0,47.5)"><g clip-path="url(#a)"><g transform="translate(36,20)"><path d="m0 0c0-9.389-7.611-17-17-17-9.388 0-17 7.611-17 17 0 9.388 7.612 17 17 17 9.389 0 17-7.612 17-17" fill="#ffcc4d"/></g><g transform="translate(29.457 20.203)"><path d="m0 0c-0.06 0.135-1.499 3.297-4.457 3.297-2.957 0-4.397-3.162-4.457-3.297-0.092-0.207-0.032-0.449 0.144-0.591 0.175-0.142 0.426-0.147 0.611-0.014 0.012 9e-3 1.262 0.902 3.702 0.902 2.426 0 3.674-0.881 3.702-0.901 0.088-0.066 0.193-0.099 0.298-0.099 0.11 0 0.221 0.036 0.311 0.109 0.178 0.142 0.239 0.386 0.146 0.594" fill="#664500"/></g><g transform="translate(17.457 20.203)"><path d="m0 0c-0.06 0.135-1.499 3.297-4.457 3.297-2.957 0-4.397-3.162-4.457-3.297-0.092-0.207-0.032-0.449 0.144-0.591s0.427-0.147 0.61-0.014c0.013 9e-3 1.262 0.902 3.703 0.902 2.426 0 3.674-0.881 3.702-0.901 0.088-0.066 0.193-0.099 0.298-0.099 0.11 0 0.221 0.036 0.311 0.109 0.179 0.142 0.238 0.386 0.146 0.594" fill="#664500"/></g><g transform="translate(32 22)"><path d="m0 0c-0.396 0-0.772 0.238-0.929 0.629-1.778 4.445-6.222 5.381-6.267 5.391-0.541 0.108-0.893 0.635-0.784 1.176 0.108 0.542 0.634 0.891 1.176 0.784 0.226-0.044 5.556-1.168 7.733-6.608 0.205-0.513-0.045-1.095-0.558-1.3-0.121-0.049-0.247-0.072-0.371-0.072" fill="#664500"/></g><g transform="translate(5.9995 22)"><path d="M 0,0 C -0.124,0 -0.249,0.023 -0.371,0.072 -0.884,0.277 -1.133,0.859 -0.928,1.372 1.248,6.812 6.579,7.936 6.804,7.98 7.348,8.087 7.873,7.738 7.981,7.196 8.089,6.656 7.739,6.13 7.2,6.02 7.015,5.982 2.693,5.04 0.929,0.629 0.772,0.238 0.397,0 0,0" fill="#664500"/></g><g transform="translate(19,16)"><path d="m0 0c-3.623 0-6.027 0.422-9 1-0.679 0.131-2 0-2-2 0-4 4.595-9 11-9 6.404 0 11 5 11 9 0 2-1.321 2.132-2 2-2.973-0.578-5.377-1-9-1" fill="#664500"/></g><g transform="translate(10,15)"><path d="m0 0s3-1 9-1 9 1 9 1-2-4-9-4-9 4-9 4" fill="#fff"/></g><g transform="translate(11.847 9.7705)"><path d="m0 0c-0.68-2.677-3.4-4.295-6.077-3.615-2.676 0.678-4.295 3.399-3.615 6.076 0.679 2.677 6.337 8.708 7.307 8.462 0.968-0.246 3.064-8.246 2.385-10.923" fill="#5dadec"/></g><g transform="translate(26.133 9.7705)"><path d="m0 0c0.68-2.677 3.4-4.295 6.077-3.615 2.677 0.678 4.296 3.399 3.616 6.076-0.679 2.677-6.338 8.708-7.307 8.462s-3.065-8.246-2.386-10.923" fill="#5dadec"/></g></g></g></svg>
